<svg xmlns="http://www.w3.org/2000/svg" viewBox="0 0 503.89 115.44"><defs><style>.cls-1{fill:#fff;}</style></defs><g id="Layer_2" data-name="Layer 2"><g id="レイヤー_1" data-name="レイヤー 1"><path class="cls-1" d="M144.45,44.65c-6,0-6.36.25-6.36,3.56v18c0,13,1.06,13.35,6.59,14l3.54.49c.82.86.7,3.06-.24,3.55-6.12-.24-11.42-.37-16.6-.37s-10.48.13-14.95.37c-1-.49-1.06-2.69-.24-3.55l1.65-.25c5.53-.85,6.59-1.22,6.59-14.2V20.65c0-13-1.06-13.35-6.59-14.08l-2.59-.37c-.83-.61-.71-3.06.23-3.55,5.18.24,10.72.36,15.9.36s10.48-.12,15.07-.36c.94.49,1.06,2.94.23,3.55l-2,.37c-5.53.73-6.59,1.1-6.59,14.08V35.47c0,3.43.35,3.67,6.36,3.67H172c6,0,6.36-.24,6.36-3.67V20.65c0-13-1.06-13.35-6.6-14.08l-2.59-.37c-.82-.61-.7-3.06.24-3.55Q177.52,3,185.3,3c5.18,0,10.48-.12,15.19-.36.94.49,1.06,2.94.23,3.55l-2.11.37c-5.54.73-6.6,1.1-6.6,14.08V66.21c0,13,1.06,13.35,6.6,14.08l2.59.37c.82.86.7,3.06-.24,3.55-5.18-.24-10.48-.37-15.66-.37q-8.12,0-15.89.37c-.94-.49-1.06-2.69-.24-3.55l2.59-.37c5.54-.73,6.6-1.1,6.6-14.08v-18c0-3.31-.36-3.56-6.36-3.56Z"/><path class="cls-1" d="M222.39,20.65c0-13-1.06-13.35-6.6-14.21l-1.88-.24c-.83-.86-.71-3.06.23-3.55,4.48.24,10,.37,15.19.37h22.49c7.54,0,14.36-.13,15.89-.37.48,2.08,1.18,11.75,1.89,17-.47,1-2.83,1.23-3.77.49C264,13.06,262.18,10,258.41,9A33.13,33.13,0,0,0,249,7.91h-7.88c-5.07,0-5.07.25-5.07,7.23v20.7c0,3.18.12,3.3,2.83,3.3h5.65c10.24,0,12.24-.12,13.07-5.39l.82-4.16c.95-.86,3.18-.86,3.77.12-.12,3.31-.35,7.72-.35,12.25s.23,8.94.35,12.86c-.59.86-2.82.86-3.77.12l-.82-4.9c-.83-5.14-2.83-5.39-13.07-5.39h-5.65c-2.71,0-2.83.25-2.83,3.31V63.51c0,6.25.24,10.66,2,12.74,1.42,1.71,3.42,2.69,13.31,2.69,15,.25,17.54-3.3,21.66-13.22a2.73,2.73,0,0,1,3.77.73c-.71,5.15-3.3,14.45-4.95,17.76-5.18-.24-15.3-.37-29.08-.37H229.33c-5.18,0-12.36.13-17.66.37-.94-.49-1.06-2.69-.23-3.55l4.35-.49c5.54-.61,6.6-1,6.6-14Z"/><path class="cls-1" d="M306.68,63.64c0,6.12.24,10.53,2,12.61C310.1,78,312,79,321.4,79c13.07,0,15-.62,20.37-13.23a3.07,3.07,0,0,1,3.65.73,120.54,120.54,0,0,1-4.95,17.76c-4.94-.24-15.07-.37-28.26-.37H300c-6,0-11.89.13-16.84.37-.94-.49-1.29-2.94-.23-3.55l3.53-.61C292,79.31,293,79,293,66.21V20.65c0-12.74-1.06-13.1-6.59-14l-3.3-.49c-.82-.61-.82-3.06.24-3.55,5.89.24,11.18.37,16.6.37,5.18,0,10.48-.13,15.66-.37,1.06.49,1.18,2.94.24,3.55l-2.59.49c-5.54.86-6.6,1.22-6.6,14Z"/><path class="cls-1" d="M375,63.64c0,6.12.23,10.53,2,12.61,1.41,1.72,3.3,2.7,12.71,2.7,13.07,0,15-.62,20.37-13.23a3.07,3.07,0,0,1,3.65.73,119.39,119.39,0,0,1-4.94,17.76c-4.95-.24-15.07-.37-28.26-.37H368.26c-6,0-11.89.13-16.84.37-.94-.49-1.29-2.94-.23-3.55l3.53-.61c5.53-.74,6.59-1.1,6.59-13.84V20.65c0-12.74-1.06-13.1-6.59-14l-3.3-.49c-.82-.61-.82-3.06.24-3.55,5.88.24,11.18.37,16.6.37,5.18,0,10.48-.13,15.66-.37,1.06.49,1.17,2.94.23,3.55l-2.59.49c-5.53.86-6.59,1.22-6.59,14Z"/><path class="cls-1" d="M503.89,43.67c0,24.13-17.66,42.13-41.45,42.13-26.6,0-41.91-19.47-41.91-41.27,0-25,17.43-43.47,42.15-43.47,27.2,0,41.21,20.33,41.21,42.61M436.54,41c0,16.9,6.95,39.92,27.08,39.92,13.42,0,24.26-10.41,24.26-35,0-18.49-8-39.93-26.73-39.93-11.77,0-24.61,9-24.61,35"/><path class="cls-1" d="M134,98.42h8.63a5.45,5.45,0,0,1,5.73,5.69c0,3-1.94,5.52-5.73,5.52h-4.49V115H134Zm4.14,7.91h3.91a2,2,0,0,0,2-2.3,2.07,2.07,0,0,0-2-2.31h-3.91Z"/><polygon class="cls-1" points="190.66 108.25 183.69 108.25 183.69 114.99 179.57 114.99 179.57 98.42 183.69 98.42 183.69 104.52 190.66 104.52 190.66 98.42 194.77 98.42 194.77 114.99 190.66 114.99 190.66 108.25"/><path class="cls-1" d="M230.46,112.31l-.83,2.68h-4.28l5.83-16.57h4.35L241.36,115h-4.29l-.82-2.68Zm4.9-2.89-2-6.55-2,6.55Z"/><path class="cls-1" d="M286.27,112.64c0,.7,0,1.71.58,2V115h-4.31a3.86,3.86,0,0,1-.39-2v-1.67a2.65,2.65,0,0,0-.66-1.81,2.09,2.09,0,0,0-1.73-.58h-3.63v6H272V98.42h8.92c3.94,0,5.44,2.15,5.44,4.54a4.75,4.75,0,0,1-1,2.94,4.25,4.25,0,0,1-2.1,1.32,2.88,2.88,0,0,1,1.67.54,3.52,3.52,0,0,1,1.34,2.94Zm-10.14-7h4.12a1.85,1.85,0,0,0,1.82-2,1.82,1.82,0,0,0-1.77-2h-4.17Z"/><polygon class="cls-1" points="327.54 114.99 324.3 114.99 321.19 103.16 321.44 114.99 317.67 114.99 317.67 98.42 322.92 98.42 325.91 110.21 328.89 98.42 334.17 98.42 334.17 114.99 330.4 114.99 330.65 103.16 327.54 114.99"/><path class="cls-1" d="M370,112.31l-.83,2.68h-4.28l5.83-16.57H375L380.85,115h-4.28l-.83-2.68Zm4.9-2.89-2-6.55-2,6.55Z"/><path class="cls-1" d="M421.65,104.42c-.36-2.25-1.57-3-2.95-3-2.92,0-3.34,3.3-3.34,5.52,0,1.18.21,5,3.36,5,2.72,0,2.95-2.6,3-3.28h4.12a7.3,7.3,0,0,1-1.38,3.92,6.7,6.7,0,0,1-5.75,2.82c-4.55,0-7.66-3.42-7.66-8.59S414,98,418.74,98a6.66,6.66,0,0,1,7,6.45Z"/><polygon class="cls-1" points="466.21 114.99 461.94 114.99 461.94 108.6 456.07 98.42 460.77 98.42 464.07 104.56 467.38 98.42 472.08 98.42 466.21 108.6 466.21 114.99"/><path class="cls-1" d="M10.76,0c3.43,2.94,25.45,24.46,22.51,46.48S7.34,96.88,0,100.3C23,90,45,72.9,47.46,68c6.85,18.1,23.49,35.23,31.32,37.68C73.39,93.45,65.08,71,66.54,57.25S90,14.19,107.64,3.91c-30.82,8.81-48.92,29.36-54.8,36.7C36.21,10.28,10.76,0,10.76,0"/><path class="cls-1" d="M45.5,19.08a9.3,9.3,0,1,1,9.3,9.3,9.29,9.29,0,0,1-9.3-9.3"/></g></g></svg>