<svg xmlns="http://www.w3.org/2000/svg" viewBox="0 0 7.84 9.09"><defs><style>.cls-1{fill:#34b6ba;}.cls-2{fill:#fff;}</style></defs><g id="Layer_2" data-name="Layer 2"><g id="map"><path class="cls-1" d="M0,3.62A3.67,3.67,0,0,1,3.92,0,3.67,3.67,0,0,1,7.84,3.62c0,2.16-3.92,5.47-3.92,5.47S0,5.78,0,3.62Z"/><path class="cls-2" d="M3.89,3.92a1.32,1.32,0,0,1-.24.85.87.87,0,0,1-.7.3.87.87,0,0,1-.7-.3A1.32,1.32,0,0,1,2,3.92V3.43a1.32,1.32,0,0,1,.24-.85A.89.89,0,0,1,3,2.29a.83.83,0,0,1,.69.3,1.24,1.24,0,0,1,.25.84Zm-.62-.57a1,1,0,0,0-.08-.44A.26.26,0,0,0,3,2.77a.25.25,0,0,0-.24.13,1,1,0,0,0-.08.41V4a1,1,0,0,0,.08.44A.24.24,0,0,0,3,4.58a.25.25,0,0,0,.24-.13A1.09,1.09,0,0,0,3.27,4Z"/><path class="cls-2" d="M5.49,5H4.86V3l-.62.18V2.73l1.19-.41h.06Z"/></g></g></svg>