<svg xmlns="http://www.w3.org/2000/svg" viewBox="0 0 7.84 9.09"><defs><style>.cls-1{fill:#34b6ba;}.cls-2{fill:#fff;}</style></defs><g id="Layer_2" data-name="Layer 2"><g id="map"><path class="cls-1" d="M0,3.62A3.67,3.67,0,0,1,3.92,0,3.67,3.67,0,0,1,7.84,3.62c0,2.16-3.92,5.47-3.92,5.47S0,5.78,0,3.62Z"/><path class="cls-2" d="M3.79,3.91a1.23,1.23,0,0,1-.24.82A.81.81,0,0,1,2.88,5a.83.83,0,0,1-.67-.29A1.25,1.25,0,0,1,2,3.91V3.44a1.25,1.25,0,0,1,.24-.82.82.82,0,0,1,.67-.28.82.82,0,0,1,.67.28,1.27,1.27,0,0,1,.24.82Zm-.6-.55a.89.89,0,0,0-.08-.42.26.26,0,0,0-.46,0,1,1,0,0,0-.07.39V4a.91.91,0,0,0,.07.42.25.25,0,0,0,.23.14.24.24,0,0,0,.23-.13A.87.87,0,0,0,3.19,4Z"/><path class="cls-2" d="M5.9,5H4.08V4.59l.84-.89a1,1,0,0,0,.31-.56.44.44,0,0,0-.07-.25.28.28,0,0,0-.44,0,.46.46,0,0,0-.09.29H4a.83.83,0,0,1,.12-.44.85.85,0,0,1,.33-.32A1,1,0,0,1,5,2.33a1,1,0,0,1,.65.2.71.71,0,0,1,.23.56.8.8,0,0,1-.06.3,1.45,1.45,0,0,1-.18.31,5.38,5.38,0,0,1-.39.43l-.34.38h1Z"/></g></g></svg>