<svg xmlns="http://www.w3.org/2000/svg" viewBox="0 0 7.84 9.09"><defs><style>.cls-1{fill:#34b6ba;}.cls-2{fill:#fff;}</style></defs><g id="Layer_2" data-name="Layer 2"><g id="map"><path class="cls-1" d="M0,3.62A3.67,3.67,0,0,1,3.92,0,3.67,3.67,0,0,1,7.84,3.62c0,2.16-3.92,5.47-3.92,5.47S0,5.78,0,3.62Z"/><path class="cls-2" d="M3.79,3.91a1.31,1.31,0,0,1-.23.82A.82.82,0,0,1,2.89,5a.8.8,0,0,1-.67-.29A1.22,1.22,0,0,1,2,3.91V3.44a1.22,1.22,0,0,1,.24-.81.81.81,0,0,1,.67-.29.81.81,0,0,1,.66.29,1.22,1.22,0,0,1,.24.81Zm-.6-.55a.94.94,0,0,0-.07-.42.26.26,0,0,0-.46,0,1,1,0,0,0-.08.39V4a.89.89,0,0,0,.08.42.24.24,0,0,0,.23.14.26.26,0,0,0,.23-.13A1.06,1.06,0,0,0,3.19,4Z"/><path class="cls-2" d="M4.63,3.42h.29a.3.3,0,0,0,.34-.33.32.32,0,0,0-.08-.21A.34.34,0,0,0,5,2.8a.38.38,0,0,0-.21.07.23.23,0,0,0-.09.18h-.6a.61.61,0,0,1,.12-.37.7.7,0,0,1,.31-.25,1.13,1.13,0,0,1,.45-.09,1,1,0,0,1,.68.2.65.65,0,0,1,.15.86.73.73,0,0,1-.3.24.75.75,0,0,1,.32.23.6.6,0,0,1,.12.38.66.66,0,0,1-.27.55,1.1,1.1,0,0,1-.7.21,1.12,1.12,0,0,1-.48-.1.73.73,0,0,1-.33-.27A.71.71,0,0,1,4,4.25h.61a.29.29,0,0,0,.09.21A.34.34,0,0,0,5,4.55a.33.33,0,0,0,.25-.09.29.29,0,0,0,.1-.23A.38.38,0,0,0,5.2,4a.46.46,0,0,0-.27-.08h-.3Z"/></g></g></svg>