<svg xmlns="http://www.w3.org/2000/svg" viewBox="0 0 7.84 9.09"><defs><style>.cls-1{fill:#34b6ba;}.cls-2{fill:#fff;}</style></defs><g id="Layer_2" data-name="Layer 2"><g id="map"><path class="cls-1" d="M0,3.62A3.67,3.67,0,0,1,3.92,0,3.67,3.67,0,0,1,7.84,3.62c0,2.16-3.92,5.47-3.92,5.47S0,5.78,0,3.62Z"/><path class="cls-2" d="M3.8,3.92a1.22,1.22,0,0,1-.24.81A.83.83,0,0,1,2.89,5a.85.85,0,0,1-.68-.29A1.28,1.28,0,0,1,2,3.92V3.44a1.29,1.29,0,0,1,.23-.82.85.85,0,0,1,.68-.29.83.83,0,0,1,.67.29,1.27,1.27,0,0,1,.24.82Zm-.61-.56a.91.91,0,0,0-.07-.42.25.25,0,0,0-.23-.14.24.24,0,0,0-.23.13,1,1,0,0,0-.08.39V4a.94.94,0,0,0,.08.43.23.23,0,0,0,.23.13.25.25,0,0,0,.23-.13A.89.89,0,0,0,3.19,4Z"/><path class="cls-2" d="M5.69,4H6v.47H5.69V5H5.08V4.43h-1l0-.37,1-1.68h.61ZM4.61,4h.47v-.8l0,.06Z"/></g></g></svg>