<svg xmlns="http://www.w3.org/2000/svg" viewBox="0 0 7.84 9.09"><defs><style>.cls-1{fill:#34b6ba;}.cls-2{fill:#fff;}</style></defs><g id="Layer_2" data-name="Layer 2"><g id="map"><path class="cls-1" d="M0,3.62A3.67,3.67,0,0,1,3.92,0,3.67,3.67,0,0,1,7.84,3.62c0,2.16-3.92,5.47-3.92,5.47S0,5.78,0,3.62Z"/><path class="cls-2" d="M3.72,3.93a1.19,1.19,0,0,1-.23.8A.81.81,0,0,1,2.84,5a.82.82,0,0,1-.66-.28A1.21,1.21,0,0,1,2,3.93V3.47a1.19,1.19,0,0,1,.23-.8.78.78,0,0,1,.65-.28.79.79,0,0,1,.66.28,1.19,1.19,0,0,1,.23.8Zm-.59-.54A.89.89,0,0,0,3.06,3a.24.24,0,0,0-.23-.14A.25.25,0,0,0,2.61,3a.92.92,0,0,0-.07.38V4a.91.91,0,0,0,.07.42.24.24,0,0,0,.23.13.23.23,0,0,0,.22-.13A.82.82,0,0,0,3.13,4Z"/><path class="cls-2" d="M4,3.73,4.2,2.42H5.69v.46h-1l-.06.51a.54.54,0,0,1,.17-.07l.2,0a.75.75,0,0,1,.58.22.88.88,0,0,1,.2.63.86.86,0,0,1-.11.45.72.72,0,0,1-.3.3A1,1,0,0,1,4.89,5a1.14,1.14,0,0,1-.45-.1.89.89,0,0,1-.33-.27A.69.69,0,0,1,4,4.25h.6a.31.31,0,0,0,.08.22.29.29,0,0,0,.22.08c.2,0,.29-.14.29-.44s-.12-.4-.36-.4a.36.36,0,0,0-.31.13Z"/></g></g></svg>