<svg xmlns="http://www.w3.org/2000/svg" viewBox="0 0 7.84 9.09"><defs><style>.cls-1{fill:#34b6ba;}.cls-2{fill:#fff;}</style></defs><g id="Layer_2" data-name="Layer 2"><g id="map"><path class="cls-1" d="M0,3.62A3.67,3.67,0,0,1,3.92,0,3.67,3.67,0,0,1,7.84,3.62c0,2.16-3.92,5.47-3.92,5.47S0,5.78,0,3.62Z"/><path class="cls-2" d="M3.72,3.93a1.19,1.19,0,0,1-.23.8A.81.81,0,0,1,2.84,5a.82.82,0,0,1-.66-.28A1.21,1.21,0,0,1,2,3.93V3.47a1.19,1.19,0,0,1,.23-.8.78.78,0,0,1,.65-.28.79.79,0,0,1,.66.28,1.19,1.19,0,0,1,.23.8Zm-.59-.54A.89.89,0,0,0,3.06,3a.24.24,0,0,0-.23-.14A.25.25,0,0,0,2.61,3a.92.92,0,0,0-.07.38V4a.91.91,0,0,0,.07.42.24.24,0,0,0,.23.13.23.23,0,0,0,.22-.13A.82.82,0,0,0,3.13,4Z"/><path class="cls-2" d="M5.44,2.39v.46h0A.85.85,0,0,0,4.87,3a.67.67,0,0,0-.26.44.69.69,0,0,1,.5-.2.63.63,0,0,1,.53.25,1,1,0,0,1,.19.63.88.88,0,0,1-.11.45.8.8,0,0,1-.32.31A.9.9,0,0,1,4.94,5a.9.9,0,0,1-.81-.48A1.26,1.26,0,0,1,4,4V3.77a1.49,1.49,0,0,1,.17-.71,1.19,1.19,0,0,1,.48-.49,1.38,1.38,0,0,1,.7-.18ZM4.91,3.71a.31.31,0,0,0-.2,0,.49.49,0,0,0-.12.13v.18c0,.32.11.48.34.48a.26.26,0,0,0,.22-.12.49.49,0,0,0,.09-.3.5.5,0,0,0-.09-.31A.3.3,0,0,0,4.91,3.71Z"/></g></g></svg>