<svg xmlns="http://www.w3.org/2000/svg" viewBox="0 0 7.84 9.09"><defs><style>.cls-1{fill:#34b6ba;}.cls-2{fill:#fff;}</style></defs><g id="Layer_2" data-name="Layer 2"><g id="map"><path class="cls-1" d="M0,3.62A3.67,3.67,0,0,1,3.92,0,3.67,3.67,0,0,1,7.84,3.62c0,2.16-3.92,5.47-3.92,5.47S0,5.78,0,3.62Z"/><path class="cls-2" d="M3.72,3.93a1.19,1.19,0,0,1-.23.8A.81.81,0,0,1,2.84,5a.82.82,0,0,1-.66-.28A1.21,1.21,0,0,1,2,3.93V3.47a1.19,1.19,0,0,1,.23-.8.78.78,0,0,1,.65-.28.79.79,0,0,1,.66.28,1.19,1.19,0,0,1,.23.8Zm-.59-.54A.89.89,0,0,0,3.06,3a.24.24,0,0,0-.23-.14A.25.25,0,0,0,2.61,3a.92.92,0,0,0-.07.38V4a.91.91,0,0,0,.07.42.24.24,0,0,0,.23.13.23.23,0,0,0,.22-.13A.82.82,0,0,0,3.13,4Z"/><path class="cls-2" d="M5.72,3.11a.57.57,0,0,1-.09.32.62.62,0,0,1-.25.23.76.76,0,0,1,.29.24.66.66,0,0,1,.1.37.65.65,0,0,1-.23.54,1,1,0,0,1-.65.2,1,1,0,0,1-.65-.2A.66.66,0,0,1,4,4.27a.61.61,0,0,1,.1-.36.68.68,0,0,1,.3-.25.72.72,0,0,1-.26-.23.57.57,0,0,1-.09-.32.66.66,0,0,1,.23-.53.89.89,0,0,1,.61-.19.91.91,0,0,1,.61.19A.65.65,0,0,1,5.72,3.11ZM5.18,4.22A.32.32,0,0,0,5.1,4a.29.29,0,0,0-.21-.08A.33.33,0,0,0,4.67,4a.36.36,0,0,0-.08.24.33.33,0,0,0,.08.24.29.29,0,0,0,.22.09.29.29,0,0,0,.21-.08A.33.33,0,0,0,5.18,4.22ZM4.89,2.84a.26.26,0,0,0-.19.08.34.34,0,0,0-.06.22.32.32,0,0,0,.07.22.24.24,0,0,0,.36,0,.38.38,0,0,0,.06-.22.36.36,0,0,0-.06-.22A.22.22,0,0,0,4.89,2.84Z"/></g></g></svg>