<svg xmlns="http://www.w3.org/2000/svg" viewBox="0 0 7.84 9.09"><defs><style>.cls-1{fill:#34b6ba;}.cls-2{fill:#fff;}</style></defs><g id="Layer_2" data-name="Layer 2"><g id="map"><path class="cls-1" d="M0,3.62A3.67,3.67,0,0,1,3.92,0,3.67,3.67,0,0,1,7.84,3.62c0,2.16-3.92,5.47-3.92,5.47S0,5.78,0,3.62Z"/><path class="cls-2" d="M3.72,3.93a1.19,1.19,0,0,1-.23.8A.81.81,0,0,1,2.84,5a.82.82,0,0,1-.66-.28A1.21,1.21,0,0,1,2,3.93V3.47a1.19,1.19,0,0,1,.23-.8.78.78,0,0,1,.65-.28.79.79,0,0,1,.66.28,1.19,1.19,0,0,1,.23.8Zm-.59-.54A.89.89,0,0,0,3.06,3a.24.24,0,0,0-.23-.14A.25.25,0,0,0,2.61,3a.92.92,0,0,0-.07.38V4a.91.91,0,0,0,.07.42.24.24,0,0,0,.23.13.23.23,0,0,0,.22-.13A.82.82,0,0,0,3.13,4Z"/><path class="cls-2" d="M5.16,4a.65.65,0,0,1-.43.17.69.69,0,0,1-.55-.24A.87.87,0,0,1,4,3.3a.9.9,0,0,1,.11-.46.85.85,0,0,1,.32-.33.89.89,0,0,1,.45-.12.9.9,0,0,1,.46.12.93.93,0,0,1,.32.36,1.33,1.33,0,0,1,.11.54v.22a1.55,1.55,0,0,1-.16.74,1.18,1.18,0,0,1-.47.47A1.5,1.5,0,0,1,4.4,5h0V4.54h.11C4.89,4.51,5.11,4.33,5.16,4Zm-.27-.26a.29.29,0,0,0,.28-.16V3.32A.6.6,0,0,0,5.08,3a.25.25,0,0,0-.22-.12A.26.26,0,0,0,4.65,3a.61.61,0,0,0-.08.32.61.61,0,0,0,.08.32A.3.3,0,0,0,4.89,3.73Z"/></g></g></svg>